<mxfile host="app.diagrams.net" modified="2022-10-02T00:38:12.789Z" agent="5.0 (X11)" etag="_sdzd_fUNaRiDHRPeyBY" version="20.4.0" type="github">
  <diagram id="XuUdbLH-mLi6vDqQrAAI" name="Page-1">
    <mxGraphModel dx="1496" dy="689" grid="1" gridSize="10" guides="1" tooltips="1" connect="1" arrows="1" fold="1" page="1" pageScale="1" pageWidth="1200" pageHeight="1600" math="0" shadow="0">
      <root>
        <mxCell id="0" />
        <mxCell id="1" parent="0" />
        <mxCell id="unXvYBQFHyOYnMl3Ow53-1" value="&lt;div&gt;Customer&lt;/div&gt;&lt;div&gt;&lt;br&gt;&lt;/div&gt;" style="shape=umlActor;html=1;verticalLabelPosition=bottom;verticalAlign=top;align=center;" vertex="1" parent="1">
          <mxGeometry x="80" y="750" width="30" height="60" as="geometry" />
        </mxCell>
        <mxCell id="unXvYBQFHyOYnMl3Ow53-6" value="" style="edgeStyle=none;html=1;endArrow=none;verticalAlign=bottom;rounded=0;exitX=0.5;exitY=0.5;exitDx=0;exitDy=0;exitPerimeter=0;entryX=0;entryY=0.5;entryDx=0;entryDy=0;" edge="1" parent="1" source="unXvYBQFHyOYnMl3Ow53-1" target="unXvYBQFHyOYnMl3Ow53-5">
          <mxGeometry width="160" relative="1" as="geometry">
            <mxPoint x="240" y="240" as="sourcePoint" />
            <mxPoint x="400" y="240" as="targetPoint" />
          </mxGeometry>
        </mxCell>
        <mxCell id="unXvYBQFHyOYnMl3Ow53-11" value="" style="edgeStyle=none;html=1;endArrow=none;verticalAlign=bottom;rounded=0;exitX=0.5;exitY=0.617;exitDx=0;exitDy=0;exitPerimeter=0;entryX=0;entryY=0.5;entryDx=0;entryDy=0;" edge="1" parent="1" source="unXvYBQFHyOYnMl3Ow53-1" target="unXvYBQFHyOYnMl3Ow53-25">
          <mxGeometry width="160" relative="1" as="geometry">
            <mxPoint x="90" y="320" as="sourcePoint" />
            <mxPoint x="177.7058057446527" y="251.7335152677481" as="targetPoint" />
          </mxGeometry>
        </mxCell>
        <mxCell id="unXvYBQFHyOYnMl3Ow53-12" value="&lt;div&gt;Seller&lt;/div&gt;&lt;div&gt;&lt;br&gt;&lt;/div&gt;" style="shape=umlActor;html=1;verticalLabelPosition=bottom;verticalAlign=top;align=center;" vertex="1" parent="1">
          <mxGeometry x="820" y="720" width="30" height="60" as="geometry" />
        </mxCell>
        <mxCell id="unXvYBQFHyOYnMl3Ow53-22" value="" style="edgeStyle=none;html=1;endArrow=none;verticalAlign=bottom;rounded=0;exitX=1;exitY=1;exitDx=0;exitDy=0;exitPerimeter=0;entryX=0;entryY=0.5;entryDx=0;entryDy=0;" edge="1" parent="1" source="unXvYBQFHyOYnMl3Ow53-1" target="unXvYBQFHyOYnMl3Ow53-21">
          <mxGeometry width="160" relative="1" as="geometry">
            <mxPoint x="50" y="350" as="sourcePoint" />
            <mxPoint x="210" y="350" as="targetPoint" />
          </mxGeometry>
        </mxCell>
        <mxCell id="unXvYBQFHyOYnMl3Ow53-24" value="" style="edgeStyle=none;html=1;endArrow=none;verticalAlign=bottom;rounded=0;exitX=0.975;exitY=0.657;exitDx=0;exitDy=0;exitPerimeter=0;entryX=0.467;entryY=0.746;entryDx=0;entryDy=0;entryPerimeter=0;" edge="1" parent="1" source="unXvYBQFHyOYnMl3Ow53-13" target="unXvYBQFHyOYnMl3Ow53-12">
          <mxGeometry width="160" relative="1" as="geometry">
            <mxPoint x="610" y="260" as="sourcePoint" />
            <mxPoint x="770" y="260" as="targetPoint" />
          </mxGeometry>
        </mxCell>
        <mxCell id="unXvYBQFHyOYnMl3Ow53-26" value="" style="edgeStyle=none;html=1;endArrow=none;verticalAlign=bottom;rounded=0;exitX=1;exitY=0.5;exitDx=0;exitDy=0;entryX=0.592;entryY=0.725;entryDx=0;entryDy=0;entryPerimeter=0;" edge="1" parent="1" source="unXvYBQFHyOYnMl3Ow53-25" target="unXvYBQFHyOYnMl3Ow53-12">
          <mxGeometry width="160" relative="1" as="geometry">
            <mxPoint x="630" y="380" as="sourcePoint" />
            <mxPoint x="790" y="380" as="targetPoint" />
          </mxGeometry>
        </mxCell>
        <mxCell id="unXvYBQFHyOYnMl3Ow53-27" value="&lt;div&gt;Manager&lt;/div&gt;" style="shape=umlActor;html=1;verticalLabelPosition=bottom;verticalAlign=top;align=center;" vertex="1" parent="1">
          <mxGeometry x="840" y="960" width="30" height="60" as="geometry" />
        </mxCell>
        <mxCell id="unXvYBQFHyOYnMl3Ow53-31" value="" style="edgeStyle=none;html=1;endArrow=none;verticalAlign=bottom;rounded=0;exitX=1;exitY=0.5;exitDx=0;exitDy=0;entryX=0.667;entryY=0.702;entryDx=0;entryDy=0;entryPerimeter=0;" edge="1" parent="1" source="unXvYBQFHyOYnMl3Ow53-30" target="unXvYBQFHyOYnMl3Ow53-27">
          <mxGeometry width="160" relative="1" as="geometry">
            <mxPoint x="640" y="500" as="sourcePoint" />
            <mxPoint x="800" y="500" as="targetPoint" />
          </mxGeometry>
        </mxCell>
        <mxCell id="unXvYBQFHyOYnMl3Ow53-33" value="" style="edgeStyle=none;html=1;endArrow=none;verticalAlign=bottom;rounded=0;exitX=0.93;exitY=0.836;exitDx=0;exitDy=0;entryX=0.5;entryY=0.5;entryDx=0;entryDy=0;entryPerimeter=0;exitPerimeter=0;" edge="1" parent="1" source="unXvYBQFHyOYnMl3Ow53-25" target="unXvYBQFHyOYnMl3Ow53-27">
          <mxGeometry width="160" relative="1" as="geometry">
            <mxPoint x="600" y="310" as="sourcePoint" />
            <mxPoint x="760" y="310" as="targetPoint" />
          </mxGeometry>
        </mxCell>
        <mxCell id="unXvYBQFHyOYnMl3Ow53-34" value="" style="edgeStyle=none;html=1;endArrow=none;verticalAlign=bottom;rounded=0;exitX=1;exitY=0.5;exitDx=0;exitDy=0;entryX=0.456;entryY=0.754;entryDx=0;entryDy=0;entryPerimeter=0;" edge="1" parent="1" source="unXvYBQFHyOYnMl3Ow53-21" target="unXvYBQFHyOYnMl3Ow53-12">
          <mxGeometry width="160" relative="1" as="geometry">
            <mxPoint x="560" y="370" as="sourcePoint" />
            <mxPoint x="720" y="370" as="targetPoint" />
          </mxGeometry>
        </mxCell>
        <mxCell id="unXvYBQFHyOYnMl3Ow53-37" value="Class1" style="swimlane;fontStyle=1;align=center;horizontal=1;startSize=30;collapsible=0;html=1;" vertex="1" parent="1">
          <mxGeometry x="230" y="570" width="450" height="580" as="geometry" />
        </mxCell>
        <mxCell id="unXvYBQFHyOYnMl3Ow53-30" value="&lt;div&gt;Update/Delete Product&lt;/div&gt;" style="ellipse;whiteSpace=wrap;html=1;" vertex="1" parent="unXvYBQFHyOYnMl3Ow53-37">
          <mxGeometry x="150" y="435" width="140" height="70" as="geometry" />
        </mxCell>
        <mxCell id="unXvYBQFHyOYnMl3Ow53-25" value="&lt;div&gt;Search Product&lt;/div&gt;" style="ellipse;whiteSpace=wrap;html=1;" vertex="1" parent="unXvYBQFHyOYnMl3Ow53-37">
          <mxGeometry x="150" y="345" width="140" height="70" as="geometry" />
        </mxCell>
        <mxCell id="unXvYBQFHyOYnMl3Ow53-21" value="&lt;div&gt;Payment&lt;/div&gt;" style="ellipse;whiteSpace=wrap;html=1;" vertex="1" parent="unXvYBQFHyOYnMl3Ow53-37">
          <mxGeometry x="150" y="255" width="140" height="70" as="geometry" />
        </mxCell>
        <mxCell id="unXvYBQFHyOYnMl3Ow53-13" value="Make Invoice" style="ellipse;whiteSpace=wrap;html=1;" vertex="1" parent="unXvYBQFHyOYnMl3Ow53-37">
          <mxGeometry x="150" y="170" width="140" height="70" as="geometry" />
        </mxCell>
        <mxCell id="unXvYBQFHyOYnMl3Ow53-5" value="&lt;div&gt;order&lt;/div&gt;" style="ellipse;whiteSpace=wrap;html=1;" vertex="1" parent="unXvYBQFHyOYnMl3Ow53-37">
          <mxGeometry x="150" y="75" width="140" height="70" as="geometry" />
        </mxCell>
      </root>
    </mxGraphModel>
  </diagram>
</mxfile>
